<svg width="48" height="42" viewBox="0 0 48 42" fill="none" xmlns="http://www.w3.org/2000/svg">
<path d="M45 18.0021H9.42L20.31 4.92332C20.8192 4.31072 21.0642 3.52095 20.9911 2.72774C20.9179 1.93453 20.5327 1.20286 19.92 0.693695C19.3074 0.184525 18.5175 -0.0604393 17.7242 0.0126934C16.9309 0.085826 16.1992 0.471065 15.69 1.08366L0.69 19.082C0.589082 19.2252 0.498838 19.3756 0.42 19.532C0.42 19.682 0.420001 19.772 0.210001 19.922C0.074021 20.2659 0.00282336 20.632 0 21.0019C0.00282336 21.3717 0.074021 21.7378 0.210001 22.0818C0.210001 22.2318 0.21 22.3218 0.42 22.4717C0.498838 22.6281 0.589082 22.7785 0.69 22.9217L15.69 40.9201C15.9721 41.2587 16.3253 41.531 16.7245 41.7177C17.1238 41.9043 17.5593 42.0007 18 42C18.701 42.0014 19.3803 41.7573 19.92 41.3101C20.2238 41.0582 20.4749 40.749 20.6589 40.3999C20.843 40.0509 20.9564 39.6691 20.9926 39.2762C21.0288 38.8833 20.9872 38.4871 20.8701 38.1103C20.7529 37.7335 20.5626 37.3836 20.31 37.0804L9.42 24.0016H45C45.7956 24.0016 46.5587 23.6856 47.1213 23.123C47.6839 22.5604 48 21.7975 48 21.0019C48 20.2063 47.6839 19.4433 47.1213 18.8807C46.5587 18.3182 45.7956 18.0021 45 18.0021Z" fill="white"/>
</svg>
