<svg width="22" height="21" viewBox="0 0 22 21" fill="none" xmlns="http://www.w3.org/2000/svg">
<path d="M4.45838 3.88889H19.8915L20.472 4.59537L20.4729 4.59651L20.713 4.88874L20.8642 5.07265M4.45838 3.88889L21.6256 4.46358L21.6255 4.46373L20.8709 5.08072C20.8687 5.078 20.8664 5.07531 20.8642 5.07265M4.45838 3.88889L3.99054 1.27653L4.45838 3.88889ZM20.8642 5.07265C20.8148 5.01466 20.7551 4.9691 20.6896 4.93789C20.6212 4.90527 20.5474 4.88879 20.4733 4.88889L20.472 4.88889L4.45838 4.88889H4.10055M20.8642 5.07265L20.8723 5.08258C20.923 5.14429 20.9607 5.21784 20.9816 5.29835C21.0024 5.37889 21.0056 5.46343 20.9909 5.54562L20.9907 5.54682L19.3251 14.8802L19.3251 14.8806C19.3015 15.0129 19.2337 15.1289 19.138 15.2102C19.0427 15.2912 18.9254 15.3334 18.807 15.3333H18.8066H6.40834H6.40806C6.28963 15.3334 6.1724 15.2912 6.0771 15.2103C5.98139 15.129 5.91354 15.0131 5.88991 14.8808L5.88985 14.8805L4.10055 4.88889M4.10055 4.88889L4.06458 4.68804L4.05802 4.65141L4.05254 4.63009L4.05031 4.60876L4.04387 4.57276L3.9381 3.98207L3.47204 1.3793L3.47032 1.36969L3.4703 1.36955L3.32454 0.555555H3.30095H2.48777H2.4877H2.4876H0.76383C0.832365 0.555555 0.894356 0.583447 0.937196 0.627069C0.979432 0.670077 1 0.724621 1 0.777778C1 0.830935 0.979432 0.885479 0.937196 0.928487C0.894356 0.972108 0.832365 1 0.76383 1H2.4876H2.4877L2.4879 1C2.60635 0.999965 2.7236 1.04212 2.81891 1.12308C2.91464 1.20438 2.98251 1.32031 3.00615 1.45253L3.0062 1.45281L3.00791 1.46241L3.47404 4.06517L3.57983 4.65585L3.58665 4.69396L3.59353 4.73238L3.60048 4.77116L3.62156 4.88889H4.10055ZM7.40213 19.4444C7.40213 19.5583 7.36889 19.6682 7.30861 19.76C7.24845 19.8517 7.16485 19.9204 7.07046 19.9602C6.97627 19.9999 6.87371 20.01 6.77495 19.99C6.67608 19.97 6.58273 19.9201 6.50773 19.8437C6.43253 19.7671 6.37934 19.6674 6.35761 19.5562C6.33587 19.4449 6.34719 19.3297 6.38939 19.226C6.43153 19.1224 6.50171 19.0367 6.58827 18.9778C6.67462 18.9191 6.77418 18.8889 6.87447 18.8889C7.00852 18.8889 7.14081 18.9429 7.24122 19.0452C7.34223 19.148 7.40213 19.2913 7.40213 19.4444ZM18.0457 18.9778C18.1321 18.9191 18.2316 18.8889 18.3319 18.8889C18.466 18.8889 18.5983 18.9429 18.6987 19.0452C18.7997 19.148 18.8596 19.2913 18.8596 19.4444C18.8596 19.5583 18.8263 19.6682 18.7661 19.76C18.7059 19.8517 18.6223 19.9204 18.5279 19.9602C18.4337 19.9999 18.3312 20.01 18.2324 19.99C18.1335 19.97 18.0402 19.9201 17.9652 19.8437C17.89 19.7671 17.8368 19.6674 17.8151 19.5562C17.7933 19.4449 17.8046 19.3297 17.8468 19.226C17.889 19.1224 17.9592 19.0367 18.0457 18.9778Z" stroke="#4C4E50" stroke-width="2"/>
</svg>
