<svg width="24" height="24" viewBox="0 0 24 24" fill="none" xmlns="http://www.w3.org/2000/svg">
<path d="M9.16596 22.2222C9.16596 22.5738 9.06822 22.9175 8.8851 23.2099C8.70198 23.5023 8.4417 23.7301 8.13718 23.8647C7.83266 23.9992 7.49758 24.0344 7.1743 23.9658C6.85102 23.8972 6.55407 23.7279 6.321 23.4793C6.08793 23.2307 5.92921 22.9139 5.86491 22.569C5.8006 22.2242 5.83361 21.8667 5.95974 21.5419C6.08588 21.217 6.29949 20.9394 6.57355 20.7441C6.84761 20.5487 7.16982 20.4444 7.49943 20.4444C7.94142 20.4444 8.36531 20.6317 8.67785 20.9651C8.99038 21.2985 9.16596 21.7507 9.16596 22.2222ZM19.9985 20.4444C19.6689 20.4444 19.3466 20.5487 19.0726 20.7441C18.7985 20.9394 18.5849 21.217 18.4588 21.5419C18.3326 21.8667 18.2996 22.2242 18.364 22.569C18.4283 22.9139 18.587 23.2307 18.82 23.4793C19.0531 23.7279 19.3501 23.8972 19.6733 23.9658C19.9966 24.0344 20.3317 23.9992 20.6362 23.8647C20.9407 23.7301 21.201 23.5023 21.3841 23.2099C21.5673 22.9175 21.665 22.5738 21.665 22.2222C21.665 21.7507 21.4894 21.2985 21.1769 20.9651C20.8644 20.6317 20.4405 20.4444 19.9985 20.4444ZM23.6128 5.08311C23.4565 4.88293 23.2609 4.72192 23.0397 4.61154C22.8185 4.50116 22.5773 4.44411 22.3331 4.44444H4.86369L4.35331 1.45889C4.28342 1.0494 4.08102 0.679064 3.7814 0.412456C3.48177 0.145847 3.10393 -0.000121676 2.71375 7.61037e-08H0.833269C0.612273 7.61037e-08 0.400327 0.0936506 0.244059 0.26035C0.0877907 0.427049 0 0.653141 0 0.888889C0 1.12464 0.0877907 1.35073 0.244059 1.51743C0.400327 1.68413 0.612273 1.77778 0.833269 1.77778H2.71385L3.33766 5.42744C3.34209 5.47191 3.34965 5.51596 3.36026 5.55922L5.35146 17.2078C5.42133 17.6173 5.62371 17.9876 5.92332 18.2542C6.22293 18.5208 6.60076 18.6668 6.99092 18.6667H20.5162C20.9066 18.6668 21.2846 18.5207 21.5843 18.2539C21.884 17.9871 22.0863 17.6164 22.1559 17.2067L23.9729 6.54C24.0168 6.28385 24.0073 6.02051 23.9451 5.76871C23.8828 5.51691 23.7693 5.28283 23.6127 5.08311H23.6128Z" fill="white"/>
</svg>
