<svg width="32" height="32" viewBox="0 0 32 32" fill="none" xmlns="http://www.w3.org/2000/svg">
<path d="M21.5067 9.6753L14.9089 18.0816L11.1216 14.2925L11.1154 14.2862L11.1089 14.2802C10.7297 13.9269 10.2283 13.7346 9.71014 13.7437C9.192 13.7529 8.69764 13.9628 8.3312 14.3292C7.96477 14.6956 7.75487 15.19 7.74573 15.7081C7.73659 16.2263 7.92891 16.7277 8.2822 17.1069L8.28818 17.1133L8.29438 17.1195L13.5864 22.4135L13.5868 22.4139C13.7769 22.6036 14.0032 22.7531 14.2523 22.8535C14.5014 22.9538 14.7682 23.003 15.0368 22.998C15.3053 22.9931 15.5701 22.934 15.8153 22.8245C16.0605 22.715 16.2812 22.5572 16.4641 22.3605L16.4768 22.3469L16.4884 22.3323L24.4592 12.3689C24.8115 11.9935 25.0057 11.4965 25.0008 10.9812C24.9958 10.4576 24.7857 9.95696 24.4157 9.5866L24.2692 9.44H24.2496C24.0973 9.31831 23.9277 9.2193 23.7461 9.1464C23.4965 9.04625 23.2293 8.99745 22.9605 9.00293C22.6916 9.0084 22.4266 9.06804 22.1813 9.17828C21.9361 9.28851 21.7155 9.44708 21.5329 9.6445L21.5192 9.65936L21.5067 9.6753ZM31.5 16C31.5 20.1109 29.867 24.0533 26.9602 26.9602C24.0533 29.867 20.1109 31.5 16 31.5C11.8891 31.5 7.94666 29.867 5.03984 26.9602C2.13303 24.0533 0.5 20.1109 0.5 16C0.5 11.8891 2.13303 7.94666 5.03984 5.03984C7.94666 2.13303 11.8891 0.5 16 0.5C20.1109 0.5 24.0533 2.13303 26.9602 5.03984C29.867 7.94666 31.5 11.8891 31.5 16Z" stroke="#4DBE4C"/>
</svg>
