<svg width="169" height="56" viewBox="0 0 169 56" fill="none" xmlns="http://www.w3.org/2000/svg">
<path d="M75.26 22.04L73.67 23.81V29H66.71V8H73.67V15.62L80.57 8H88.28L79.88 17.24L88.7 29H80.51L75.26 22.04ZM95.6495 8H102.729V29H95.6495V8ZM123.148 29.48C120.888 29.48 118.858 29.01 117.058 28.07C115.258 27.13 113.848 25.83 112.828 24.17C111.808 22.49 111.298 20.6 111.298 18.5C111.298 16.4 111.808 14.52 112.828 12.86C113.848 11.18 115.258 9.87 117.058 8.93C118.858 7.99 120.888 7.52 123.148 7.52C125.408 7.52 127.438 7.99 129.238 8.93C131.038 9.87 132.448 11.18 133.468 12.86C134.488 14.52 134.998 16.4 134.998 18.5C134.998 20.6 134.488 22.49 133.468 24.17C132.448 25.83 131.038 27.13 129.238 28.07C127.438 29.01 125.408 29.48 123.148 29.48ZM123.148 23.75C124.028 23.75 124.818 23.54 125.518 23.12C126.238 22.68 126.808 22.07 127.228 21.29C127.648 20.49 127.858 19.56 127.858 18.5C127.858 17.44 127.648 16.52 127.228 15.74C126.808 14.94 126.238 14.33 125.518 13.91C124.818 13.47 124.028 13.25 123.148 13.25C122.268 13.25 121.468 13.47 120.748 13.91C120.048 14.33 119.488 14.94 119.068 15.74C118.648 16.52 118.438 17.44 118.438 18.5C118.438 19.56 118.648 20.49 119.068 21.29C119.488 22.07 120.048 22.68 120.748 23.12C121.468 23.54 122.268 23.75 123.148 23.75ZM161.961 23.51V29H142.671V24.65L152.271 13.49H142.971V8H161.481V12.35L151.881 23.51H161.961Z" fill="#FF621F"/>
<path d="M10.223 2C4.57649 2 0 7.28861 0 13.8125C0 19.3981 3.35655 24.0792 7.86488 25.3077L6.17127 52.6316C6.13966 53.0651 6.19921 53.5004 6.34616 53.91C6.49311 54.3195 6.72425 54.6945 7.02499 55.011C7.32572 55.3276 7.6895 55.5789 8.09332 55.7491C8.49714 55.9193 8.93223 56.0047 9.37107 55.9998H11.0749C12.9491 55.9998 14.3871 54.4844 14.2747 52.6316L12.5811 25.3077C17.0894 24.0758 20.446 19.3981 20.446 13.8125C20.446 7.28861 15.8695 2 10.223 2ZM44.5824 2L41.7438 18.8749H39.614L38.1931 2H36.7721L35.3511 18.8749H33.2213L30.3827 2H28.9617V23.9374C28.9617 24.385 29.1412 24.8142 29.4607 25.1307C29.7803 25.4471 30.2136 25.6249 30.6655 25.6249H35.1023L33.4291 52.6316C33.3975 53.0651 33.4571 53.5004 33.604 53.91C33.751 54.3195 33.9821 54.6945 34.2829 55.011C34.5836 55.3276 34.9474 55.5789 35.3512 55.7491C35.755 55.9193 36.1901 56.0047 36.6289 55.9998H38.3328C40.207 55.9998 41.645 54.4844 41.5326 52.6316L39.8594 25.6249H44.2962C44.7481 25.6249 45.1814 25.4471 45.501 25.1307C45.8205 24.8142 46 24.385 46 23.9374V2H44.579H44.5824Z" fill="#FF621F"/>
<path d="M69.598 43.066C68.8353 43.066 68.146 42.8973 67.53 42.56C66.9213 42.2227 66.441 41.757 66.089 41.163C65.7443 40.5617 65.572 39.8907 65.572 39.15C65.572 38.4093 65.7443 37.742 66.089 37.148C66.441 36.5467 66.925 36.0773 67.541 35.74C68.157 35.4027 68.8463 35.234 69.609 35.234C70.181 35.234 70.709 35.3293 71.193 35.52C71.677 35.7107 72.0877 35.9893 72.425 36.356L71.908 36.873C71.3067 36.2643 70.5477 35.96 69.631 35.96C69.0223 35.96 68.4687 36.0993 67.97 36.378C67.4713 36.6567 67.079 37.038 66.793 37.522C66.5143 38.006 66.375 38.5487 66.375 39.15C66.375 39.7513 66.5143 40.294 66.793 40.778C67.079 41.262 67.4713 41.6433 67.97 41.922C68.4687 42.2007 69.0223 42.34 69.631 42.34C70.555 42.34 71.314 42.032 71.908 41.416L72.425 41.933C72.0877 42.2997 71.6733 42.582 71.182 42.78C70.698 42.9707 70.17 43.066 69.598 43.066ZM77.2024 43.055C76.6451 43.055 76.1428 42.9303 75.6954 42.681C75.2481 42.4243 74.8961 42.0723 74.6394 41.625C74.3828 41.1777 74.2544 40.6717 74.2544 40.107C74.2544 39.5423 74.3828 39.0363 74.6394 38.589C74.8961 38.1417 75.2481 37.7933 75.6954 37.544C76.1428 37.2947 76.6451 37.17 77.2024 37.17C77.7598 37.17 78.2621 37.2947 78.7094 37.544C79.1568 37.7933 79.5051 38.1417 79.7544 38.589C80.0111 39.0363 80.1394 39.5423 80.1394 40.107C80.1394 40.6717 80.0111 41.1777 79.7544 41.625C79.5051 42.0723 79.1568 42.4243 78.7094 42.681C78.2621 42.9303 77.7598 43.055 77.2024 43.055ZM77.2024 42.362C77.6131 42.362 77.9798 42.2703 78.3024 42.087C78.6324 41.8963 78.8891 41.6287 79.0724 41.284C79.2558 40.9393 79.3474 40.547 79.3474 40.107C79.3474 39.667 79.2558 39.2747 79.0724 38.93C78.8891 38.5853 78.6324 38.3213 78.3024 38.138C77.9798 37.9473 77.6131 37.852 77.2024 37.852C76.7918 37.852 76.4214 37.9473 76.0914 38.138C75.7688 38.3213 75.5121 38.5853 75.3214 38.93C75.1381 39.2747 75.0464 39.667 75.0464 40.107C75.0464 40.547 75.1381 40.9393 75.3214 41.284C75.5121 41.6287 75.7688 41.8963 76.0914 42.087C76.4214 42.2703 76.7918 42.362 77.2024 42.362ZM85.1989 43.055C84.6416 43.055 84.1393 42.9303 83.6919 42.681C83.2446 42.4243 82.8926 42.0723 82.6359 41.625C82.3793 41.1777 82.2509 40.6717 82.2509 40.107C82.2509 39.5423 82.3793 39.0363 82.6359 38.589C82.8926 38.1417 83.2446 37.7933 83.6919 37.544C84.1393 37.2947 84.6416 37.17 85.1989 37.17C85.7563 37.17 86.2586 37.2947 86.7059 37.544C87.1533 37.7933 87.5016 38.1417 87.7509 38.589C88.0076 39.0363 88.1359 39.5423 88.1359 40.107C88.1359 40.6717 88.0076 41.1777 87.7509 41.625C87.5016 42.0723 87.1533 42.4243 86.7059 42.681C86.2586 42.9303 85.7563 43.055 85.1989 43.055ZM85.1989 42.362C85.6096 42.362 85.9763 42.2703 86.2989 42.087C86.6289 41.8963 86.8856 41.6287 87.0689 41.284C87.2523 40.9393 87.3439 40.547 87.3439 40.107C87.3439 39.667 87.2523 39.2747 87.0689 38.93C86.8856 38.5853 86.6289 38.3213 86.2989 38.138C85.9763 37.9473 85.6096 37.852 85.1989 37.852C84.7883 37.852 84.4179 37.9473 84.0879 38.138C83.7653 38.3213 83.5086 38.5853 83.3179 38.93C83.1346 39.2747 83.0429 39.667 83.0429 40.107C83.0429 40.547 83.1346 40.9393 83.3179 41.284C83.5086 41.6287 83.7653 41.8963 84.0879 42.087C84.4179 42.2703 84.7883 42.362 85.1989 42.362ZM92.9754 40.096L91.6114 41.35V43H90.8304V34.838H91.6114V40.371L95.0654 37.214H96.0334L93.5584 39.579L96.2644 43H95.3074L92.9754 40.096ZM113.252 35.3L110.656 43H109.798L107.543 36.433L105.277 43H104.43L101.834 35.3H102.67L104.892 41.922L107.191 35.3H107.95L110.216 41.955L112.471 35.3H113.252ZM115.647 37.214H116.428V43H115.647V37.214ZM116.043 35.949C115.882 35.949 115.746 35.894 115.636 35.784C115.526 35.674 115.471 35.542 115.471 35.388C115.471 35.2413 115.526 35.113 115.636 35.003C115.746 34.893 115.882 34.838 116.043 34.838C116.204 34.838 116.34 34.893 116.45 35.003C116.56 35.1057 116.615 35.2303 116.615 35.377C116.615 35.5383 116.56 35.674 116.45 35.784C116.34 35.894 116.204 35.949 116.043 35.949ZM122.748 42.648C122.601 42.78 122.418 42.8827 122.198 42.956C121.985 43.022 121.762 43.055 121.527 43.055C120.984 43.055 120.566 42.9083 120.273 42.615C119.98 42.3217 119.833 41.9073 119.833 41.372V37.874H118.799V37.214H119.833V35.949H120.614V37.214H122.374V37.874H120.614V41.328C120.614 41.6727 120.698 41.9367 120.867 42.12C121.043 42.296 121.292 42.384 121.615 42.384C121.776 42.384 121.93 42.3583 122.077 42.307C122.231 42.2557 122.363 42.1823 122.473 42.087L122.748 42.648ZM128.218 37.17C128.944 37.17 129.52 37.3827 129.945 37.808C130.378 38.226 130.594 38.8383 130.594 39.645V43H129.813V39.722C129.813 39.1207 129.663 38.6623 129.362 38.347C129.061 38.0317 128.632 37.874 128.075 37.874C127.452 37.874 126.957 38.061 126.59 38.435C126.231 38.8017 126.051 39.3113 126.051 39.964V43H125.27V34.838H126.051V38.226C126.264 37.8887 126.557 37.6283 126.931 37.445C127.305 37.2617 127.734 37.17 128.218 37.17ZM137.958 35.3H138.772V42.296H143.084V43H137.958V35.3ZM147.65 43.055C147.092 43.055 146.59 42.9303 146.143 42.681C145.695 42.4243 145.343 42.0723 145.087 41.625C144.83 41.1777 144.702 40.6717 144.702 40.107C144.702 39.5423 144.83 39.0363 145.087 38.589C145.343 38.1417 145.695 37.7933 146.143 37.544C146.59 37.2947 147.092 37.17 147.65 37.17C148.207 37.17 148.709 37.2947 149.157 37.544C149.604 37.7933 149.952 38.1417 150.202 38.589C150.458 39.0363 150.587 39.5423 150.587 40.107C150.587 40.6717 150.458 41.1777 150.202 41.625C149.952 42.0723 149.604 42.4243 149.157 42.681C148.709 42.9303 148.207 43.055 147.65 43.055ZM147.65 42.362C148.06 42.362 148.427 42.2703 148.75 42.087C149.08 41.8963 149.336 41.6287 149.52 41.284C149.703 40.9393 149.795 40.547 149.795 40.107C149.795 39.667 149.703 39.2747 149.52 38.93C149.336 38.5853 149.08 38.3213 148.75 38.138C148.427 37.9473 148.06 37.852 147.65 37.852C147.239 37.852 146.869 37.9473 146.539 38.138C146.216 38.3213 145.959 38.5853 145.769 38.93C145.585 39.2747 145.494 39.667 145.494 40.107C145.494 40.547 145.585 40.9393 145.769 41.284C145.959 41.6287 146.216 41.8963 146.539 42.087C146.869 42.2703 147.239 42.362 147.65 42.362ZM157.982 37.214L155.408 43H154.605L152.042 37.214H152.856L155.023 42.142L157.212 37.214H157.982ZM165.059 40.349H160.219C160.263 40.9503 160.494 41.438 160.912 41.812C161.33 42.1787 161.858 42.362 162.496 42.362C162.855 42.362 163.185 42.2997 163.486 42.175C163.787 42.043 164.047 41.8523 164.267 41.603L164.707 42.109C164.45 42.417 164.128 42.6517 163.739 42.813C163.358 42.9743 162.936 43.055 162.474 43.055C161.88 43.055 161.352 42.9303 160.89 42.681C160.435 42.4243 160.08 42.0723 159.823 41.625C159.566 41.1777 159.438 40.6717 159.438 40.107C159.438 39.5423 159.559 39.0363 159.801 38.589C160.05 38.1417 160.388 37.7933 160.813 37.544C161.246 37.2947 161.73 37.17 162.265 37.17C162.8 37.17 163.281 37.2947 163.706 37.544C164.131 37.7933 164.465 38.1417 164.707 38.589C164.949 39.029 165.07 39.535 165.07 40.107L165.059 40.349ZM162.265 37.841C161.708 37.841 161.238 38.0207 160.857 38.38C160.483 38.732 160.27 39.194 160.219 39.766H164.322C164.271 39.194 164.054 38.732 163.673 38.38C163.299 38.0207 162.83 37.841 162.265 37.841Z" fill="#FF621F"/>
</svg>
