<svg width="169" height="56" viewBox="0 0 169 56" fill="none" xmlns="http://www.w3.org/2000/svg">
<path d="M75.26 22.04L73.67 23.81V29H66.71V8H73.67V15.62L80.57 8H88.28L79.88 17.24L88.7 29H80.51L75.26 22.04ZM95.6495 8H102.729V29H95.6495V8ZM123.148 29.48C120.888 29.48 118.858 29.01 117.058 28.07C115.258 27.13 113.848 25.83 112.828 24.17C111.808 22.49 111.298 20.6 111.298 18.5C111.298 16.4 111.808 14.52 112.828 12.86C113.848 11.18 115.258 9.87 117.058 8.93C118.858 7.99 120.888 7.52 123.148 7.52C125.408 7.52 127.438 7.99 129.238 8.93C131.038 9.87 132.448 11.18 133.468 12.86C134.488 14.52 134.998 16.4 134.998 18.5C134.998 20.6 134.488 22.49 133.468 24.17C132.448 25.83 131.038 27.13 129.238 28.07C127.438 29.01 125.408 29.48 123.148 29.48ZM123.148 23.75C124.028 23.75 124.818 23.54 125.518 23.12C126.238 22.68 126.808 22.07 127.228 21.29C127.648 20.49 127.858 19.56 127.858 18.5C127.858 17.44 127.648 16.52 127.228 15.74C126.808 14.94 126.238 14.33 125.518 13.91C124.818 13.47 124.028 13.25 123.148 13.25C122.268 13.25 121.468 13.47 120.748 13.91C120.048 14.33 119.488 14.94 119.068 15.74C118.648 16.52 118.438 17.44 118.438 18.5C118.438 19.56 118.648 20.49 119.068 21.29C119.488 22.07 120.048 22.68 120.748 23.12C121.468 23.54 122.268 23.75 123.148 23.75ZM161.961 23.51V29H142.671V24.65L152.271 13.49H142.971V8H161.481V12.35L151.881 23.51H161.961Z" fill="white"/>
<path d="M10.223 2C4.57649 2 0 7.28861 0 13.8125C0 19.3981 3.35655 24.0792 7.86488 25.3077L6.17127 52.6316C6.13966 53.0651 6.19921 53.5004 6.34616 53.91C6.49311 54.3195 6.72425 54.6945 7.02499 55.011C7.32572 55.3276 7.6895 55.5789 8.09332 55.7491C8.49714 55.9193 8.93223 56.0047 9.37107 55.9998H11.0749C12.9491 55.9998 14.3871 54.4844 14.2747 52.6316L12.5811 25.3077C17.0894 24.0758 20.446 19.3981 20.446 13.8125C20.446 7.28861 15.8695 2 10.223 2ZM44.5824 2L41.7438 18.8749H39.614L38.1931 2H36.7721L35.3511 18.8749H33.2213L30.3827 2H28.9617V23.9374C28.9617 24.385 29.1412 24.8142 29.4607 25.1307C29.7803 25.4471 30.2136 25.6249 30.6655 25.6249H35.1023L33.4291 52.6316C33.3975 53.0651 33.4571 53.5004 33.604 53.91C33.751 54.3195 33.9821 54.6945 34.2829 55.011C34.5836 55.3276 34.9474 55.5789 35.3512 55.7491C35.755 55.9193 36.1901 56.0047 36.6289 55.9998H38.3328C40.207 55.9998 41.645 54.4844 41.5326 52.6316L39.8594 25.6249H44.2962C44.7481 25.6249 45.1814 25.4471 45.501 25.1307C45.8205 24.8142 46 24.385 46 23.9374V2H44.579H44.5824Z" fill="white"/>
<path d="M69.598 43.11C68.8207 43.11 68.1167 42.9413 67.486 42.604C66.8627 42.2593 66.3713 41.7863 66.012 41.185C65.66 40.5837 65.484 39.9053 65.484 39.15C65.484 38.3947 65.6637 37.7163 66.023 37.115C66.3823 36.5137 66.8737 36.0443 67.497 35.707C68.1277 35.3623 68.8317 35.19 69.609 35.19C70.2397 35.19 70.8153 35.3 71.336 35.52C71.8567 35.74 72.2967 36.059 72.656 36.477L71.732 37.346C71.1747 36.7447 70.489 36.444 69.675 36.444C69.147 36.444 68.674 36.5613 68.256 36.796C67.838 37.0233 67.5117 37.3423 67.277 37.753C67.0423 38.1637 66.925 38.6293 66.925 39.15C66.925 39.6707 67.0423 40.1363 67.277 40.547C67.5117 40.9577 67.838 41.2803 68.256 41.515C68.674 41.7423 69.147 41.856 69.675 41.856C70.489 41.856 71.1747 41.5517 71.732 40.943L72.656 41.823C72.2967 42.241 71.853 42.56 71.325 42.78C70.8043 43 70.2287 43.11 69.598 43.11ZM77.4193 43.077C76.8253 43.077 76.29 42.9487 75.8133 42.692C75.3367 42.4353 74.9627 42.0797 74.6913 41.625C74.4273 41.163 74.2953 40.6423 74.2953 40.063C74.2953 39.4837 74.4273 38.9667 74.6913 38.512C74.9627 38.0573 75.3367 37.7017 75.8133 37.445C76.29 37.1883 76.8253 37.06 77.4193 37.06C78.0207 37.06 78.5597 37.1883 79.0363 37.445C79.513 37.7017 79.8833 38.0573 80.1473 38.512C80.4187 38.9667 80.5543 39.4837 80.5543 40.063C80.5543 40.6423 80.4187 41.163 80.1473 41.625C79.8833 42.0797 79.513 42.4353 79.0363 42.692C78.5597 42.9487 78.0207 43.077 77.4193 43.077ZM77.4193 41.9C77.9253 41.9 78.3433 41.7313 78.6733 41.394C79.0033 41.0567 79.1683 40.613 79.1683 40.063C79.1683 39.513 79.0033 39.0693 78.6733 38.732C78.3433 38.3947 77.9253 38.226 77.4193 38.226C76.9133 38.226 76.4953 38.3947 76.1653 38.732C75.8427 39.0693 75.6813 39.513 75.6813 40.063C75.6813 40.613 75.8427 41.0567 76.1653 41.394C76.4953 41.7313 76.9133 41.9 77.4193 41.9ZM85.6092 43.077C85.0152 43.077 84.4799 42.9487 84.0032 42.692C83.5265 42.4353 83.1525 42.0797 82.8812 41.625C82.6172 41.163 82.4852 40.6423 82.4852 40.063C82.4852 39.4837 82.6172 38.9667 82.8812 38.512C83.1525 38.0573 83.5265 37.7017 84.0032 37.445C84.4799 37.1883 85.0152 37.06 85.6092 37.06C86.2105 37.06 86.7495 37.1883 87.2262 37.445C87.7029 37.7017 88.0732 38.0573 88.3372 38.512C88.6085 38.9667 88.7442 39.4837 88.7442 40.063C88.7442 40.6423 88.6085 41.163 88.3372 41.625C88.0732 42.0797 87.7029 42.4353 87.2262 42.692C86.7495 42.9487 86.2105 43.077 85.6092 43.077ZM85.6092 41.9C86.1152 41.9 86.5332 41.7313 86.8632 41.394C87.1932 41.0567 87.3582 40.613 87.3582 40.063C87.3582 39.513 87.1932 39.0693 86.8632 38.732C86.5332 38.3947 86.1152 38.226 85.6092 38.226C85.1032 38.226 84.6852 38.3947 84.3552 38.732C84.0325 39.0693 83.8712 39.513 83.8712 40.063C83.8712 40.613 84.0325 41.0567 84.3552 41.394C84.6852 41.7313 85.1032 41.9 85.6092 41.9ZM93.557 40.481L92.534 41.449V43H91.159V34.838H92.534V39.766L95.383 37.126H97.033L94.58 39.59L97.264 43H95.592L93.557 40.481ZM114.777 35.3L112.225 43H110.707L108.804 37.302L106.868 43H105.339L102.787 35.3H104.272L106.186 41.152L108.177 35.3H109.497L111.444 41.185L113.413 35.3H114.777ZM116.964 37.126H118.339V43H116.964V37.126ZM117.657 36.158C117.408 36.158 117.199 36.081 117.03 35.927C116.861 35.7657 116.777 35.5677 116.777 35.333C116.777 35.0983 116.861 34.904 117.03 34.75C117.199 34.5887 117.408 34.508 117.657 34.508C117.906 34.508 118.115 34.585 118.284 34.739C118.453 34.8857 118.537 35.0727 118.537 35.3C118.537 35.542 118.453 35.7473 118.284 35.916C118.123 36.0773 117.914 36.158 117.657 36.158ZM124.775 42.681C124.613 42.813 124.415 42.912 124.181 42.978C123.953 43.044 123.711 43.077 123.455 43.077C122.809 43.077 122.311 42.9083 121.959 42.571C121.607 42.2337 121.431 41.7423 121.431 41.097V38.27H120.463V37.17H121.431V35.828H122.806V37.17H124.379V38.27H122.806V41.064C122.806 41.35 122.875 41.57 123.015 41.724C123.154 41.8707 123.356 41.944 123.62 41.944C123.928 41.944 124.184 41.8633 124.39 41.702L124.775 42.681ZM130.339 37.06C131.079 37.06 131.673 37.2763 132.121 37.709C132.568 38.1417 132.792 38.7833 132.792 39.634V43H131.417V39.81C131.417 39.2967 131.296 38.9117 131.054 38.655C130.812 38.391 130.467 38.259 130.02 38.259C129.514 38.259 129.114 38.413 128.821 38.721C128.527 39.0217 128.381 39.458 128.381 40.03V43H127.006V34.838H128.381V37.808C128.608 37.566 128.887 37.3827 129.217 37.258C129.554 37.126 129.928 37.06 130.339 37.06ZM139.908 35.3H141.338V41.79H145.364V43H139.908V35.3ZM150.047 43.077C149.453 43.077 148.918 42.9487 148.441 42.692C147.965 42.4353 147.591 42.0797 147.319 41.625C147.055 41.163 146.923 40.6423 146.923 40.063C146.923 39.4837 147.055 38.9667 147.319 38.512C147.591 38.0573 147.965 37.7017 148.441 37.445C148.918 37.1883 149.453 37.06 150.047 37.06C150.649 37.06 151.188 37.1883 151.664 37.445C152.141 37.7017 152.511 38.0573 152.775 38.512C153.047 38.9667 153.182 39.4837 153.182 40.063C153.182 40.6423 153.047 41.163 152.775 41.625C152.511 42.0797 152.141 42.4353 151.664 42.692C151.188 42.9487 150.649 43.077 150.047 43.077ZM150.047 41.9C150.553 41.9 150.971 41.7313 151.301 41.394C151.631 41.0567 151.796 40.613 151.796 40.063C151.796 39.513 151.631 39.0693 151.301 38.732C150.971 38.3947 150.553 38.226 150.047 38.226C149.541 38.226 149.123 38.3947 148.793 38.732C148.471 39.0693 148.309 39.513 148.309 40.063C148.309 40.613 148.471 41.0567 148.793 41.394C149.123 41.7313 149.541 41.9 150.047 41.9ZM160.936 37.126L158.417 43H156.998L154.479 37.126H155.909L157.735 41.482L159.616 37.126H160.936ZM168.256 40.096C168.256 40.1913 168.249 40.327 168.234 40.503H163.625C163.706 40.9357 163.915 41.2803 164.252 41.537C164.597 41.7863 165.022 41.911 165.528 41.911C166.174 41.911 166.705 41.6983 167.123 41.273L167.86 42.12C167.596 42.4353 167.263 42.6737 166.859 42.835C166.456 42.9963 166.001 43.077 165.495 43.077C164.85 43.077 164.282 42.9487 163.79 42.692C163.299 42.4353 162.918 42.0797 162.646 41.625C162.382 41.163 162.25 40.6423 162.25 40.063C162.25 39.491 162.379 38.9777 162.635 38.523C162.899 38.061 163.262 37.7017 163.724 37.445C164.186 37.1883 164.707 37.06 165.286 37.06C165.858 37.06 166.368 37.1883 166.815 37.445C167.27 37.6943 167.622 38.05 167.871 38.512C168.128 38.9667 168.256 39.4947 168.256 40.096ZM165.286 38.16C164.846 38.16 164.472 38.292 164.164 38.556C163.864 38.8127 163.68 39.1573 163.614 39.59H166.947C166.889 39.1647 166.709 38.82 166.408 38.556C166.108 38.292 165.734 38.16 165.286 38.16Z" fill="white"/>
</svg>
