<svg width="20" height="20" viewBox="0 0 20 20" fill="none" xmlns="http://www.w3.org/2000/svg">
<path d="M20 14.1123V2.14291C20 0.959401 19.0406 0 17.8571 0H2.14286C0.959375 0 0 0.959401 0 2.14291V17.8571C0 19.0406 0.959375 20 2.14286 20H14.1124C14.6807 20 15.2258 19.7742 15.6276 19.3723L19.3724 15.6275C19.7742 15.2256 20 14.6806 20 14.1123ZM14.2857 17.6838V14.2856H17.6838L14.2857 17.6838ZM17.8571 2.14291V12.1426H13.2143C12.6225 12.1426 12.1429 12.6223 12.1429 13.2141V17.8571H2.14286V2.14291H17.8571Z" fill="#8C8C8C"/>
</svg>
